<svg width="18" height="18" viewBox="0 0 20 20" fill="#FFFFFF" xmlns="http://www.w3.org/2000/svg">
  <path d="M10,0 C4.477,0 0,4.484 0,10.017 C0,14.425 2.865,18.18 6.839,19.49 C7.339,19.581 7.521,19.272 7.521,19.006 C7.521,18.722 7.512,17.988 7.507,17.192 C4.726,17.69 4.139,15.97 4.139,15.97 C3.685,14.83 3.029,14.5 3.029,14.5 C2.121,13.88 3.097,13.895 3.097,13.895 C4.101,13.965 4.629,14.93 4.629,14.93 C5.521,16.367 6.97,15.937 7.539,15.737 C7.631,15.134 7.889,14.771 8.175,14.577 C5.954,14.329 3.62,13.448 3.62,9.582 C3.62,8.469 4.01,7.577 4.649,6.894 C4.546,6.602 4.203,5.567 4.747,4.18 C4.747,4.18 5.586,3.905 7.496,5.207 C8.295,4.98 9.15,4.866 10,4.862 C10.85,4.866 11.705,4.98 12.504,5.207 C14.414,3.905 15.253,4.18 15.253,4.18 C15.797,5.567 15.454,6.602 15.351,6.894 C15.99,7.577 16.38,8.469 16.38,9.582 C16.38,13.455 14.041,14.33 11.817,14.576 C12.172,14.833 12.482,15.397 12.482,16.279 C12.482,17.559 12.469,18.524 12.469,19.006 C12.469,19.27 12.649,19.577 13.155,19.481 C17.135,18.175 20,14.421 20,10.017 C20,4.484 15.522,0 10,0" />
</svg>
