<?xml version="1.0" encoding="UTF-8"?>
<svg width="778px" height="778px" viewBox="0 0 778 778" version="1.1" xmlns="http://www.w3.org/2000/svg" xmlns:xlink="http://www.w3.org/1999/xlink">
    <title>Graphic</title>
    <g id="Graphic" stroke="none" fill="none" fill-rule="nonzero">
        <path d="M778,119 L778,659 L279.163,659 C278.233,659 277.31,658.967978 276.396,658.903933 C273.991,658.967978 271.577,659 269.157,659 C120.506,659 0,538.116605 0,388.9995 C0,239.883395 120.506,119 269.157,119 C271.577,119 273.991,119.032022 276.396,119.096067 C277.31,119.032022 278.233,119 279.163,119 L778,119 Z M718.187,178.999889 L438.346,178.999889 C499.325,228.498446 538.313,304.182285 538.313,388.9995 C538.313,473.817715 499.325,549.501554 438.346,599.000111 L718.187,599.000111 L718.187,178.999889 Z M239.687,181.06433 C138.023,195.432361 59.813,283.054534 59.813,388.9995 C59.813,494.945466 138.023,582.567639 239.687,596.93567 Z M299.499,181.189417 L299.499,596.810583 C400.737,582.065288 478.501,494.642254 478.501,388.9995 C478.501,283.357746 400.737,195.934712 299.499,181.189417 Z" id="Combined-Shape" fill="#FFFFFF"></path>
    </g>
</svg>